# xmcd
#
# Track frame offsets:
#	150
#	23064
#	45340
#	60351
#	84908
#	105689
#	123124
#	144299
#	159910
#	173659
#	198093
#	220435
#	242453
#	263892
#	275733
#	297912
#	317023
#	337318
#
# Disc length: 4692 seconds
#
# Revision: 0
# Processed by: cddbd v1.5.2PL0 Copyright (c) Steve Scherf et al.
# Submitted via: dBpowerAMP V4.0
#
DISCID=f5125212
DTITLE=Various Artist - Una Americana en París - Fargo Records
DYEAR=1900
DGENRE=
TTITLE0=Clem Snide - The Sound of German Hip Hop
TTITLE1=Andrew Bird and The Mysterious Production of Eggs - A nervous tic motion
TTITLE2=Ben Weaver - Ragged words
TTITLE3=Jesse Skyes and The Sweet Hereafter - Your eyes told
TTITLE4=Neal Casal - St Cloud
TTITLE5=Christian Kjellvander - Homeward rolling soldier
TTITLE6=Mattias Hellberg - Walking restless
TTITLE7=Alamo Race Track - We like to go on
TTITLE8=White Hassle - Let it be me
TTITLE9=Great Lake Swimmers - Moving pictures silent films
TTITLE10=Hazy Malaze - Bust it down
TTITLE11=Shearwater - A makeover
TTITLE12=Richard Buckner - A chance counsel
TTITLE13=Chris Whitley - War Crimes Blues
TTITLE14=Kevin Salem - Party song
TTITLE15=Hederos and Hellberg - No fun
TTITLE16=Alice Texas - X's for eyes
TTITLE17=Mother Superior - Head Hanging Low
EXTD=
EXTT0=
EXTT1=
EXTT2=
EXTT3=
EXTT4=
EXTT5=
EXTT6=
EXTT7=
EXTT8=
EXTT9=
EXTT10=
EXTT11=
EXTT12=
EXTT13=
EXTT14=
EXTT15=
EXTT16=
EXTT17=
PLAYORDER=
